# xmcd
#
# Track frame offsets: 
#        150
#        12375
#        26394
#        48237
#        76717
#        92724
#        111904
#        142704
#        168285
#        180779
#        199162
#        224174
#
# Disc length: 3346 seconds
#
# Revision: 0
# Processed by: cddbd v1.5.2PL0 Copyright (c) Steve Scherf et al.
# Submitted via: ExactAudioCopy v1.0b3
#
DISCID=900d100c
DTITLE=Mark Trammell Quartet - Live in Louisville
DYEAR=2013
DGENRE=Gospel
TTITLE0=I Sing the Mighty Power of God
TTITLE1=Tis So Sweet to Trust in Jesus
TTITLE2=Wonderful Time Up There
TTITLE3=Statue of Liberty
TTITLE4=Gentle Shepherd
TTITLE5=Guide Me Oh Thou Great Jehovah
TTITLE6=I Want to Know
TTITLE7=The King is Coming Medley
TTITLE8=Meet me Over on the Other Side
TTITLE9=Too Much to Gain to Lose
TTITLE10=Standing on the Rock
TTITLE11=Golden City Tour
EXTD=
EXTT0=
EXTT1=
EXTT2=
EXTT3=
EXTT4=
EXTT5=
EXTT6=
EXTT7=
EXTT8=
EXTT9=
EXTT10=
EXTT11=
PLAYORDER=
